<svg xmlns="http://www.w3.org/2000/svg" viewBox="0 0 64 64">
<path d="M32 10 C40 22 46 30 46 39 a14 14 0 0 1 -28 0 C18 30 24 22 32 10 Z" fill="#9bd7f2"/>
<path d="M32 10 C40 22 46 30 46 39 a14 14 0 0 1 -28 0 C18 30 24 22 32 10 Z" fill="none" stroke="#1c1a15" stroke-width="4" stroke-linejoin="round"/>
<circle cx="26" cy="36" r="2.6" fill="#1c1a15"/><circle cx="38" cy="36" r="2.6" fill="#1c1a15"/>
<path d="M27 44 q5 5 10 0" fill="none" stroke="#1c1a15" stroke-width="3.4" stroke-linecap="round"/>
<ellipse cx="41" cy="26" rx="2.4" ry="3.2" fill="#fff" opacity=".8" transform="rotate(25 41 26)"/>
</svg>
